Motion_pl13
version=1
nRows=9
nColumns=43
inDegrees=yes
endheader
time	pelvis_tilt	pelvis_list	pelvis_rotation	pelvis_tx	pelvis_ty	pelvis_tz	hip_flexion_r	hip_adduction_r	hip_rotation_r	knee_angle_r	ankle_angle_r	subtalar_angle_r	mtp_angle_r	hip_flexion_l	hip_adduction_l	hip_rotation_l	knee_angle_l	ankle_angle_l	subtalar_angle_l	mtp_angle_l	lumbar_extension	lumbar_bending	lumbar_rotation	neck_flexion	neck_lateral_bending	neck_rotation	arm_flex_r	arm_add_r	arm_rot_r	elbow_flex_r	pro_sup_r	wrist_flex_r	wrist_dev_r	hand_finger_flex_r	arm_flex_l	arm_add_l	arm_rot_l	elbow_flex_l	pro_sup_l	wrist_flex_l	wrist_dev_l	hand_finger_flex_l
      2.45250000	      6.58010918	     -4.08063993	     85.29892453	      0.02393560	      0.83303488	      0.33442241	     40.33173393	      6.43280435	      0.54760780	    -64.18574147	     23.28521641	     -2.20551419	      6.94323216	     45.59550445	    -20.35412522	     -5.67991438	    -74.41502325	     14.46642973	     28.54445076	     26.67755955	    -28.06502935	      6.33051999	      3.37842845	      9.39737255	     -1.95172241	      2.26307631	    142.18136519	   -116.85712613	    109.66349251	    109.10967853	     97.62839610	     10.56511621	     -8.63998241	    -16.97359520	    148.84995950	   -139.73149023	    135.00062855	     67.65475138	     95.32398334	    -24.40343993	    -10.67206000	     -2.80061528
      2.45500000	      6.61433260	     -3.96580801	     85.32190923	      0.02396204	      0.83562024	      0.33424636	     39.69322573	      6.56465982	      0.70796215	    -63.35020112	     23.32506274	     -2.60770263	      6.13959639	     45.08058000	    -20.31229332	     -5.78653492	    -73.82482966	     14.52573183	     28.49236484	     26.14808744	    -28.13301227	      6.35529059	      3.27613305	      9.18159651	     -1.89815776	      2.32207023	    143.29358663	   -117.53028616	    111.56288797	    108.88161093	     98.57742349	     10.58058681	     -8.76480067	    -16.79121419	    149.09103915	   -140.61495709	    135.25561821	     67.10421329	     95.77515036	    -24.45102068	    -11.02606444	     -2.88152498
      2.45750000	      6.64668077	     -4.13249556	     85.40126639	      0.02391405	      0.83748492	      0.33426489	     39.43737232	      6.63066031	      0.77990372	    -62.60533101	     23.33819495	     -2.67930925	      6.01779273	     44.96327000	    -20.20029891	     -5.74714990	    -73.30316331	     14.48587198	     28.40278294	     26.05589904	    -27.91956379	      6.42966863	      3.39634301	      9.15895837	     -1.87176200	      2.34378707	    143.33107448	   -118.44786204	    112.47123090	    108.77399260	     98.57980456	     10.54252928	     -8.83969552	    -16.81792394	    149.45533130	   -141.19936831	    135.93665385	     66.68555908	     95.80718171	    -24.23103970	    -10.90166827	     -2.83164505
      2.46000000	      6.70456666	     -4.09738862	     85.47490357	      0.02398275	      0.83980118	      0.33408396	     38.90646172	      6.74345004	      0.85855165	    -61.79225131	     23.21285198	     -3.03292740	      5.64821369	     44.57824176	    -20.13966438	     -5.76277003	    -72.71665521	     14.39483536	     28.26656015	     25.81981703	    -27.83045506	      6.52926112	      3.44938292	      8.65188188	     -2.01220413	      2.03911877	    143.72263232	   -119.19010358	    113.80301876	    108.54510379	     98.93291223	     10.42953974	     -8.94573873	    -16.81572303	    149.78877456	   -141.67713702	    136.73097070	     65.97826239	     96.15150638	    -24.08429009	    -11.09425639	     -2.81756259
      2.46250000	      6.77328038	     -4.08521390	     85.53261320	      0.02407847	      0.84206751	      0.33393030	     38.39786584	      6.87021293	      0.94826419	    -60.96385582	     23.15528681	     -3.29438607	      5.25886961	     44.21087364	    -20.10237864	     -5.77639121	    -72.12829910	     14.38463735	     28.22205448	     25.58293683	    -27.76629576	      6.61314265	      3.52892861	      8.39739726	     -2.04038180	      1.92194263	    144.11431360	   -119.99949701	    115.05773989	    108.30399686	     99.34043850	     10.34773971	     -9.07496507	    -16.77490360	    150.17202649	   -142.27135553	    137.36032966	     65.35612058	     96.44802211	    -24.02446720	    -11.25628276	     -2.82604851
      2.46500000	      6.84880351	     -3.97539689	     85.55275566	      0.02417449	      0.84449338	      0.33373910	     37.78103262	      7.02081228	      1.06631212	    -60.14310006	     23.16386236	     -3.60189270	      4.52629457	     43.68913669	    -20.09331802	     -5.82801524	    -71.49358902	     14.45501891	     28.26459890	     25.15472975	    -27.82639953	      6.67896828	      3.52846331	      8.17829896	     -2.01352485	      1.86044006	    144.70571602	   -120.64890728	    116.50132264	    107.98994792	    100.07342490	     10.28712830	     -9.29843449	    -16.60099205	    150.46999411	   -143.04581940	    137.70822818	     64.79503136	     96.81311325	    -24.12573856	    -11.50670536	     -2.87941950
      2.46750000	      6.88611387	     -4.12962545	     85.62432886	      0.02428003	      0.84628689	      0.33370527	     37.50685951	      7.08373001	      1.10807341	    -59.38009326	     23.14562655	     -3.64457870	      4.39793167	     43.54306534	    -20.01839769	     -5.79675800	    -70.95060893	     14.44621100	     28.21168768	     25.07525779	    -27.60497368	      6.73855169	      3.66992040	      8.10151457	     -1.96962650	      1.82072094	    144.75815323	   -121.55978155	    117.38646392	    107.77576121	    100.09849078	     10.26482491	     -9.37081518	    -16.60925613	    150.87073665	   -143.58772913	    138.34475247	     64.30581633	     96.85434586	    -23.93957495	    -11.37501225	     -2.84156074
      2.47000000	      6.95997881	     -4.07137075	     85.68508692	      0.02441291	      0.84851304	      0.33345851	     36.94351989	      7.19815634	      1.17222476	    -58.54198241	     23.03827752	     -3.95424828	      4.04184271	     43.10901863	    -19.99715373	     -5.82603958	    -70.33390797	     14.39911764	     28.18121132	     24.88030228	    -27.52370323	      6.83841786	      3.75285393	      7.54427269	     -2.09075522	      1.50962432	    145.09688416	   -122.26030726	    118.63302015	    107.40014661	    100.45723670	     10.20581546	     -9.56220349	    -16.57106132	    151.19998427	   -144.03193362	    139.11788611	     63.60253729	     97.16842965	    -23.87431410	    -11.54520267	     -2.87532897
      2.47250000	      7.02759889	     -4.02927729	     85.74022841	      0.02455631	      0.85068264	      0.33321840	     36.40224512	      7.31046555	      1.24789287	    -57.70374221	     22.98646268	     -4.22640834	      3.65253188	     42.69446209	    -19.97557322	     -5.84990867	    -69.73748557	     14.41623598	     28.19037294	     24.67858945	    -27.47315870	      6.90882482	      3.83390584	      7.26361469	     -2.09479853	      1.38695939	    145.45402108	   -123.01777305	    119.81118762	    107.01044731	    100.88088682	     10.16831853	     -9.75317081	    -16.51154024	    151.55042294	   -144.57885283	    139.71688937	     62.97430562	     97.41804735	    -23.87974465	    -11.69080089	     -2.94572124
